# xmcd
#
# Track frame offsets:
# 150
# 16699
# 57376
# 75917
# 92919
# 139561
# 150250
# 194252
# 210253
#
# Disc length: 2943 seconds
#
# Revision: 1
# Processed by: cddbd v1.4PL0 Copyright (c) Steve Scherf et al.
# Submitted via: Easy CD Ripper v2.10
#
DISCID=5d0b7d09
DTITLE=FGSADF - TADD
DYEAR=2003
DGENRE=Blues
TTITLE0=HHH JKLK - HKJU
TTITLE1=HKPOIL - DFFSSD
TTITLE2=The Third - SDFDS
TTITLE3=JKHKL - DFSDF
TTITLE4=SDFSDF - SF
TTITLE5=ewtrwqer - sfda
TTITLE6=SDFSDF - SFDSDF
TTITLE7=SASDA - WERWQR
TTITLE8=QRQWR - FWEWE
EXTD=GOOD
EXTT0=
EXTT1=
EXTT2=
EXTT3=
EXTT4=
EXTT5=
EXTT6=
EXTT7=
EXTT8=
PLAYORDER=
